<svg width="78" height="78" viewBox="0 0 78 78" fill="none" xmlns="http://www.w3.org/2000/svg">
  <path
    d="M27.3927 61.152L15.756 67.4994C15.0731 67.8717 14.4594 68.3294 13.8884 68.8284C20.673 74.5488 29.431 78 39 78C48.4984 78 57.2005 74.6004 63.9659 68.9579C63.3419 68.431 62.6649 67.9571 61.9144 67.5833L49.4535 61.3536C47.8434 60.5486 46.8265 58.9032 46.8265 57.1033V52.2144C47.1768 51.8155 47.5771 51.3034 48.0053 50.6985C49.7037 48.2996 50.9885 45.6609 51.8788 42.8926C53.4771 42.3996 54.6545 40.9235 54.6545 39.1692V33.9506C54.6545 32.8026 54.1438 31.7769 53.3505 31.0587V23.5148C53.3505 23.5148 54.9002 11.775 39.0015 11.775C23.1027 11.775 24.6524 23.5148 24.6524 23.5148V31.0587C23.8577 31.7769 23.3485 32.8026 23.3485 33.9506V39.1692C23.3485 40.5438 24.0711 41.7535 25.1528 42.4526C26.4567 48.1289 29.8711 52.2144 29.8711 52.2144V56.9827C29.8696 58.7193 28.9189 60.319 27.3927 61.152Z"
    fill="#E7ECED" />
  <path
    d="M39.6667 0.00586859C18.1313 -0.362056 0.373797 16.7979 0.00587244 38.3333C-0.203109 50.544 5.23923 61.5184 13.9046 68.8166C14.4712 68.3221 15.079 67.8688 15.7545 67.5009L27.3912 61.1535C28.9174 60.3205 29.8681 58.7207 29.8681 56.9812V52.2129C29.8681 52.2129 26.4523 48.1275 25.1498 42.4511C24.0696 41.7521 23.3455 40.5438 23.3455 39.1678V33.9491C23.3455 32.8012 23.8562 31.7754 24.6495 31.0572V23.5133C24.6495 23.5133 23.0998 11.7736 38.9985 11.7736C54.8973 11.7736 53.3476 23.5133 53.3476 23.5133V31.0572C54.1423 31.7754 54.6515 32.8012 54.6515 33.9491V39.1678C54.6515 40.922 53.4741 42.3981 51.8759 42.8911C50.9855 45.6594 49.7007 48.2982 48.0024 50.697C47.5741 51.3019 47.1738 51.8141 46.8235 52.2129V57.1019C46.8235 58.9018 47.8405 60.5486 49.4505 61.3521L61.9114 67.5818C62.659 67.9556 63.3345 68.4281 63.957 68.9535C72.3604 61.9452 77.7895 51.4667 77.9911 39.6667C78.362 18.1313 61.2035 0.373793 39.6667 0.00586859Z"
    fill="#556080" />
</svg>